<svg xmlns="http://www.w3.org/2000/svg" xmlns:xlink="http://www.w3.org/1999/xlink" width="300" zoomAndPan="magnify" viewBox="0 0 224.87999 89.999999" height="120" preserveAspectRatio="xMidYMid meet" version="1.0"><defs><clipPath id="d052680dfd"><path d="M 3.640625 29 L 81 29 L 81 62 L 3.640625 62 Z M 3.640625 29 " clip-rule="nonzero"/></clipPath><clipPath id="8d63a763ed"><path d="M 130 81 L 132 81 L 132 89.976562 L 130 89.976562 Z M 130 81 " clip-rule="nonzero"/></clipPath><clipPath id="5c963adde4"><path d="M 171 71 L 183 71 L 183 89.976562 L 171 89.976562 Z M 171 71 " clip-rule="nonzero"/></clipPath><clipPath id="48f61e4266"><path d="M 156 71 L 169 71 L 169 89.976562 L 156 89.976562 Z M 156 71 " clip-rule="nonzero"/></clipPath><clipPath id="34ad3e5211"><path d="M 17 0.0234375 L 129 0.0234375 L 129 47 L 17 47 Z M 17 0.0234375 " clip-rule="nonzero"/></clipPath><clipPath id="64de1585ac"><path d="M 122 89 L 217.277344 89 L 217.277344 89.976562 L 122 89.976562 Z M 122 89 " clip-rule="nonzero"/></clipPath><clipPath id="fff48ec45e"><path d="M 22.496094 4.867188 L 124.113281 4.867188 L 124.113281 31.851562 L 22.496094 31.851562 Z M 22.496094 4.867188 " clip-rule="nonzero"/></clipPath></defs><g clip-path="url(#d052680dfd)"><path fill="#f0f0f0" d="M 80.804688 29.597656 L 3.707031 29.597656 L 3.707031 54.890625 L 6.628906 54.890625 L 6.628906 61.507812 L 13.246094 54.890625 L 80.804688 54.890625 Z M 80.804688 29.597656 " fill-opacity="1" fill-rule="nonzero"/></g><path fill="#FFF459" d="M 5.851562 32.0625 L 78.660156 32.0625 L 78.660156 52.296875 L 5.851562 52.296875 Z M 5.851562 32.0625 " fill-opacity="1" fill-rule="nonzero"/><path fill="#f0f0f0" d="M 12.289062 38.164062 L 47.347656 38.164062 L 47.347656 39.226562 L 12.289062 39.226562 Z M 12.289062 38.164062 " fill-opacity="1" fill-rule="nonzero"/><path fill="#f0f0f0" d="M 12.289062 41.84375 L 73.390625 41.84375 L 73.390625 42.90625 L 12.289062 42.90625 Z M 12.289062 41.84375 " fill-opacity="1" fill-rule="nonzero"/><path fill="#f0f0f0" d="M 12.289062 45.519531 L 73.332031 45.519531 L 73.332031 46.582031 L 12.289062 46.582031 Z M 12.289062 45.519531 " fill-opacity="1" fill-rule="nonzero"/><path fill="#f0f0f0" d="M 133.210938 86.730469 C 133.210938 86.730469 133.578125 79.035156 141.113281 79.929688 " fill-opacity="1" fill-rule="nonzero"/><path fill="#f0f0f0" d="M 134.855469 75.640625 C 134.855469 76.140625 134.757812 76.621094 134.566406 77.082031 C 134.375 77.542969 134.105469 77.953125 133.75 78.304688 C 133.394531 78.65625 132.988281 78.929688 132.527344 79.121094 C 132.066406 79.3125 131.582031 79.410156 131.082031 79.410156 C 130.582031 79.410156 130.101562 79.3125 129.640625 79.121094 C 129.179688 78.929688 128.769531 78.65625 128.417969 78.304688 C 128.0625 77.953125 127.792969 77.542969 127.601562 77.082031 C 127.410156 76.621094 127.3125 76.140625 127.3125 75.640625 C 127.3125 75.140625 127.410156 74.660156 127.601562 74.199219 C 127.792969 73.738281 128.0625 73.328125 128.417969 72.976562 C 128.769531 72.621094 129.179688 72.351562 129.640625 72.160156 C 130.101562 71.96875 130.582031 71.871094 131.082031 71.871094 C 131.582031 71.871094 132.066406 71.96875 132.527344 72.160156 C 132.988281 72.351562 133.394531 72.621094 133.75 72.976562 C 134.105469 73.328125 134.375 73.738281 134.566406 74.199219 C 134.757812 74.660156 134.855469 75.140625 134.855469 75.640625 Z M 134.855469 75.640625 " fill-opacity="1" fill-rule="nonzero"/><g clip-path="url(#8d63a763ed)"><path fill="#f0f0f0" d="M 130.46875 81.984375 L 131.535156 81.984375 L 131.535156 89.429688 L 130.46875 89.429688 Z M 130.46875 81.984375 " fill-opacity="1" fill-rule="nonzero"/></g><path fill="#3f3d56" d="M 198.996094 44.5 C 198.996094 45.496094 198.949219 46.492188 198.851562 47.484375 C 198.753906 48.476562 198.605469 49.460938 198.414062 50.441406 C 198.21875 51.417969 197.976562 52.382812 197.6875 53.339844 C 197.394531 54.292969 197.058594 55.230469 196.679688 56.152344 C 196.296875 57.074219 195.871094 57.972656 195.398438 58.855469 C 194.929688 59.734375 194.417969 60.585938 193.863281 61.417969 C 193.308594 62.246094 192.714844 63.046875 192.082031 63.816406 C 191.449219 64.589844 190.777344 65.328125 190.074219 66.03125 C 189.367188 66.738281 188.628906 67.40625 187.855469 68.039062 C 187.085938 68.671875 186.285156 69.265625 185.457031 69.820312 C 184.625 70.371094 183.769531 70.886719 182.890625 71.355469 C 182.011719 71.824219 181.109375 72.25 180.1875 72.632812 C 179.265625 73.015625 178.328125 73.351562 177.371094 73.640625 C 176.417969 73.929688 175.449219 74.171875 174.472656 74.367188 C 173.492188 74.558594 172.507812 74.707031 171.515625 74.804688 C 170.519531 74.902344 169.523438 74.949219 168.527344 74.949219 C 167.527344 74.949219 166.535156 74.902344 165.539062 74.804688 C 164.546875 74.707031 163.5625 74.558594 162.582031 74.367188 C 161.605469 74.171875 160.636719 73.929688 159.683594 73.640625 C 158.726562 73.351562 157.789062 73.015625 156.867188 72.632812 C 155.945312 72.25 155.042969 71.824219 154.164062 71.355469 C 153.285156 70.886719 152.429688 70.371094 151.597656 69.820312 C 150.769531 69.265625 149.96875 68.671875 149.195312 68.039062 C 148.425781 67.40625 147.6875 66.738281 146.980469 66.03125 C 146.277344 65.328125 145.605469 64.589844 144.972656 63.816406 C 144.339844 63.046875 143.746094 62.246094 143.191406 61.417969 C 142.636719 60.585938 142.125 59.734375 141.65625 58.855469 C 141.183594 57.972656 140.757812 57.074219 140.375 56.152344 C 139.996094 55.230469 139.660156 54.292969 139.367188 53.339844 C 139.078125 52.382812 138.835938 51.417969 138.640625 50.441406 C 138.449219 49.460938 138.300781 48.476562 138.203125 47.484375 C 138.105469 46.492188 138.058594 45.496094 138.058594 44.5 C 138.058594 43.5 138.105469 42.507812 138.203125 41.515625 C 138.300781 40.519531 138.449219 39.535156 138.640625 38.558594 C 138.835938 37.578125 139.078125 36.613281 139.367188 35.660156 C 139.660156 34.703125 139.996094 33.765625 140.375 32.84375 C 140.757812 31.921875 141.183594 31.023438 141.65625 30.144531 C 142.125 29.265625 142.636719 28.410156 143.191406 27.582031 C 143.746094 26.75 144.339844 25.949219 144.972656 25.179688 C 145.605469 24.410156 146.277344 23.671875 146.980469 22.964844 C 147.6875 22.261719 148.425781 21.589844 149.195312 20.957031 C 149.96875 20.328125 150.769531 19.734375 151.597656 19.179688 C 152.429688 18.625 153.285156 18.113281 154.164062 17.640625 C 155.042969 17.171875 155.945312 16.746094 156.867188 16.363281 C 157.789062 15.984375 158.726562 15.648438 159.683594 15.359375 C 160.636719 15.070312 161.605469 14.828125 162.582031 14.632812 C 163.5625 14.4375 164.546875 14.292969 165.539062 14.191406 C 166.535156 14.09375 167.527344 14.046875 168.527344 14.046875 C 169.523438 14.046875 170.519531 14.09375 171.515625 14.191406 C 172.507812 14.292969 173.492188 14.4375 174.472656 14.632812 C 175.449219 14.828125 176.417969 15.070312 177.371094 15.359375 C 178.328125 15.648438 179.265625 15.984375 180.1875 16.363281 C 181.109375 16.746094 182.011719 17.171875 182.890625 17.640625 C 183.769531 18.113281 184.625 18.625 185.457031 19.179688 C 186.285156 19.734375 187.085938 20.328125 187.855469 20.957031 C 188.628906 21.589844 189.367188 22.261719 190.074219 22.964844 C 190.777344 23.671875 191.449219 24.410156 192.082031 25.179688 C 192.714844 25.949219 193.308594 26.75 193.863281 27.582031 C 194.417969 28.410156 194.929688 29.265625 195.398438 30.144531 C 195.871094 31.023438 196.296875 31.921875 196.679688 32.84375 C 197.058594 33.765625 197.394531 34.703125 197.6875 35.660156 C 197.976562 36.613281 198.21875 37.578125 198.414062 38.558594 C 198.605469 39.535156 198.753906 40.519531 198.851562 41.515625 C 198.949219 42.507812 198.996094 43.5 198.996094 44.5 Z M 198.996094 44.5 " fill-opacity="1" fill-rule="nonzero"/><path fill="#FFF459" d="M 149.34375 46.945312 C 149.722656 46.492188 150.144531 46.085938 150.613281 45.722656 C 151.082031 45.363281 151.582031 45.058594 152.117188 44.808594 C 152.652344 44.558594 153.207031 44.371094 153.78125 44.242188 C 154.359375 44.113281 154.941406 44.050781 155.53125 44.050781 C 156.121094 44.050781 156.707031 44.113281 157.28125 44.242188 C 157.859375 44.371094 158.414062 44.558594 158.949219 44.808594 C 159.484375 45.058594 159.984375 45.363281 160.453125 45.722656 C 160.917969 46.085938 161.34375 46.492188 161.71875 46.945312 C 162.144531 46.539062 162.527344 46.09375 162.867188 45.613281 C 163.203125 45.132812 163.492188 44.621094 163.730469 44.082031 C 163.96875 43.546875 164.152344 42.988281 164.277344 42.414062 C 164.40625 41.839844 164.476562 41.261719 164.492188 40.671875 C 164.503906 40.085938 164.460938 39.5 164.359375 38.921875 C 164.257812 38.34375 164.101562 37.777344 163.890625 37.230469 C 163.675781 36.683594 163.414062 36.160156 163.097656 35.664062 C 162.78125 35.167969 162.421875 34.707031 162.015625 34.28125 C 161.609375 33.855469 161.164062 33.472656 160.683594 33.136719 C 160.203125 32.796875 159.691406 32.507812 159.152344 32.273438 C 158.613281 32.035156 158.058594 31.851562 157.484375 31.722656 C 156.910156 31.59375 156.328125 31.523438 155.742188 31.511719 C 155.152344 31.496094 154.566406 31.542969 153.988281 31.640625 C 153.410156 31.742188 152.84375 31.902344 152.296875 32.113281 C 151.746094 32.324219 151.222656 32.589844 150.726562 32.90625 C 150.230469 33.21875 149.769531 33.582031 149.34375 33.988281 C 148.917969 34.394531 148.535156 34.835938 148.199219 35.316406 C 147.859375 35.800781 147.570312 36.308594 147.335938 36.847656 C 147.097656 37.382812 146.914062 37.941406 146.785156 38.515625 C 146.65625 39.089844 146.585938 39.667969 146.574219 40.257812 C 146.558594 40.84375 146.601562 41.429688 146.703125 42.007812 C 146.804688 42.585938 146.960938 43.152344 147.175781 43.699219 C 147.386719 44.246094 147.652344 44.769531 147.96875 45.265625 C 148.28125 45.761719 148.644531 46.222656 149.050781 46.648438 C 149.144531 46.75 149.242188 46.847656 149.34375 46.945312 Z M 149.34375 46.945312 " fill-opacity="1" fill-rule="nonzero"/><path fill="#FFF459" d="M 173.542969 46.945312 C 173.917969 46.492188 174.34375 46.085938 174.808594 45.722656 C 175.277344 45.363281 175.777344 45.058594 176.3125 44.808594 C 176.847656 44.558594 177.402344 44.371094 177.980469 44.242188 C 178.554688 44.113281 179.140625 44.050781 179.730469 44.050781 C 180.320312 44.050781 180.902344 44.113281 181.480469 44.242188 C 182.054688 44.371094 182.609375 44.558594 183.144531 44.808594 C 183.679688 45.058594 184.179688 45.363281 184.648438 45.722656 C 185.117188 46.085938 185.539062 46.492188 185.917969 46.945312 C 186.34375 46.539062 186.726562 46.09375 187.0625 45.613281 C 187.402344 45.132812 187.691406 44.621094 187.925781 44.082031 C 188.164062 43.546875 188.347656 42.988281 188.476562 42.414062 C 188.605469 41.839844 188.675781 41.261719 188.6875 40.671875 C 188.703125 40.085938 188.660156 39.5 188.558594 38.921875 C 188.457031 38.34375 188.300781 37.777344 188.085938 37.230469 C 187.875 36.683594 187.609375 36.160156 187.292969 35.664062 C 186.980469 35.167969 186.617188 34.707031 186.210938 34.28125 C 185.804688 33.855469 185.363281 33.472656 184.878906 33.136719 C 184.398438 32.796875 183.886719 32.507812 183.351562 32.273438 C 182.8125 32.035156 182.253906 31.851562 181.679688 31.722656 C 181.105469 31.59375 180.527344 31.523438 179.9375 31.511719 C 179.347656 31.496094 178.765625 31.542969 178.183594 31.640625 C 177.605469 31.742188 177.042969 31.902344 176.492188 32.113281 C 175.945312 32.324219 175.421875 32.589844 174.925781 32.90625 C 174.429688 33.21875 173.96875 33.582031 173.542969 33.988281 C 173.117188 34.394531 172.734375 34.835938 172.394531 35.316406 C 172.058594 35.800781 171.769531 36.308594 171.53125 36.847656 C 171.292969 37.382812 171.109375 37.941406 170.984375 38.515625 C 170.855469 39.089844 170.785156 39.667969 170.769531 40.257812 C 170.757812 40.84375 170.800781 41.429688 170.902344 42.007812 C 171.003906 42.585938 171.160156 43.152344 171.371094 43.699219 C 171.585938 44.246094 171.847656 44.769531 172.164062 45.265625 C 172.480469 45.761719 172.839844 46.222656 173.246094 46.648438 C 173.34375 46.75 173.441406 46.847656 173.542969 46.945312 Z M 173.542969 46.945312 " fill-opacity="1" fill-rule="nonzero"/><path fill="#3f3d56" d="M 155.558594 37.414062 C 155.558594 37.824219 155.480469 38.214844 155.324219 38.59375 C 155.167969 38.972656 154.945312 39.304688 154.65625 39.59375 C 154.367188 39.882812 154.03125 40.105469 153.65625 40.261719 C 153.277344 40.417969 152.882812 40.496094 152.476562 40.496094 C 152.066406 40.496094 151.671875 40.417969 151.296875 40.261719 C 150.917969 40.105469 150.585938 39.882812 150.296875 39.59375 C 150.007812 39.304688 149.785156 38.972656 149.625 38.59375 C 149.46875 38.214844 149.390625 37.824219 149.390625 37.414062 C 149.390625 37.007812 149.46875 36.613281 149.625 36.234375 C 149.785156 35.859375 150.007812 35.527344 150.296875 35.238281 C 150.585938 34.949219 150.917969 34.726562 151.296875 34.570312 C 151.671875 34.414062 152.066406 34.335938 152.476562 34.335938 C 152.882812 34.335938 153.277344 34.414062 153.65625 34.570312 C 154.03125 34.726562 154.367188 34.949219 154.65625 35.238281 C 154.945312 35.527344 155.167969 35.859375 155.324219 36.234375 C 155.480469 36.613281 155.558594 37.007812 155.558594 37.414062 Z M 155.558594 37.414062 " fill-opacity="1" fill-rule="nonzero"/><path fill="#3f3d56" d="M 179.753906 37.414062 C 179.753906 37.824219 179.675781 38.214844 179.519531 38.59375 C 179.363281 38.972656 179.140625 39.304688 178.851562 39.59375 C 178.5625 39.882812 178.230469 40.105469 177.851562 40.261719 C 177.472656 40.417969 177.082031 40.496094 176.671875 40.496094 C 176.261719 40.496094 175.871094 40.417969 175.492188 40.261719 C 175.113281 40.105469 174.78125 39.882812 174.492188 39.59375 C 174.203125 39.304688 173.980469 38.972656 173.824219 38.59375 C 173.667969 38.214844 173.589844 37.824219 173.589844 37.414062 C 173.589844 37.007812 173.667969 36.613281 173.824219 36.234375 C 173.980469 35.859375 174.203125 35.527344 174.492188 35.238281 C 174.78125 34.949219 175.113281 34.726562 175.492188 34.570312 C 175.871094 34.414062 176.261719 34.335938 176.671875 34.335938 C 177.082031 34.335938 177.472656 34.414062 177.851562 34.570312 C 178.230469 34.726562 178.5625 34.949219 178.851562 35.238281 C 179.140625 35.527344 179.363281 35.859375 179.519531 36.234375 C 179.675781 36.613281 179.753906 37.007812 179.753906 37.414062 Z M 179.753906 37.414062 " fill-opacity="1" fill-rule="nonzero"/><path fill="#2f2f31" d="M 150.15625 52.113281 C 150.15625 52.585938 150.0625 53.042969 149.882812 53.484375 C 149.699219 53.921875 149.441406 54.308594 149.105469 54.644531 C 148.769531 54.980469 148.382812 55.238281 147.941406 55.421875 C 147.503906 55.605469 147.046875 55.695312 146.570312 55.695312 C 146.09375 55.695312 145.636719 55.605469 145.199219 55.421875 C 144.757812 55.238281 144.371094 54.980469 144.035156 54.644531 C 143.699219 54.308594 143.441406 53.921875 143.257812 53.484375 C 143.078125 53.042969 142.984375 52.585938 142.984375 52.113281 C 142.984375 51.636719 143.078125 51.179688 143.257812 50.742188 C 143.441406 50.300781 143.699219 49.914062 144.035156 49.578125 C 144.371094 49.242188 144.757812 48.984375 145.199219 48.800781 C 145.636719 48.621094 146.09375 48.53125 146.570312 48.53125 C 147.046875 48.53125 147.503906 48.621094 147.941406 48.800781 C 148.382812 48.984375 148.769531 49.242188 149.105469 49.578125 C 149.441406 49.914062 149.699219 50.300781 149.882812 50.742188 C 150.0625 51.179688 150.15625 51.636719 150.15625 52.113281 Z M 150.15625 52.113281 " fill-opacity="1" fill-rule="nonzero"/><path fill="#2f2f31" d="M 191.378906 52.113281 C 191.378906 52.585938 191.289062 53.042969 191.105469 53.484375 C 190.925781 53.921875 190.664062 54.308594 190.328125 54.644531 C 189.992188 54.980469 189.605469 55.238281 189.167969 55.421875 C 188.726562 55.605469 188.269531 55.695312 187.796875 55.695312 C 187.320312 55.695312 186.863281 55.605469 186.421875 55.421875 C 185.984375 55.238281 185.597656 54.980469 185.261719 54.644531 C 184.925781 54.308594 184.664062 53.921875 184.484375 53.484375 C 184.300781 53.042969 184.210938 52.585938 184.210938 52.113281 C 184.210938 51.636719 184.300781 51.179688 184.484375 50.742188 C 184.664062 50.300781 184.925781 49.914062 185.261719 49.578125 C 185.597656 49.242188 185.984375 48.984375 186.421875 48.800781 C 186.863281 48.621094 187.320312 48.53125 187.796875 48.53125 C 188.269531 48.53125 188.726562 48.621094 189.167969 48.800781 C 189.605469 48.984375 189.992188 49.242188 190.328125 49.578125 C 190.664062 49.914062 190.925781 50.300781 191.105469 50.742188 C 191.289062 51.179688 191.378906 51.636719 191.378906 52.113281 Z M 191.378906 52.113281 " fill-opacity="1" fill-rule="nonzero"/><path fill="#2f2f31" d="M 167.183594 44.945312 L 164.496094 56.589844 L 168.976562 52.113281 Z M 167.183594 44.945312 " fill-opacity="1" fill-rule="nonzero"/><g clip-path="url(#5c963adde4)"><path fill="#3f3d56" d="M 180.996094 89.730469 L 177.945312 87.167969 L 178.015625 89.730469 L 177.066406 89.730469 L 176.992188 87.023438 L 172.871094 89.730469 L 171.144531 89.730469 L 176.960938 85.910156 L 176.734375 77.886719 L 176.566406 71.828125 L 177.511719 71.800781 L 177.683594 77.886719 L 177.910156 85.902344 L 182.472656 89.730469 Z M 180.996094 89.730469 " fill-opacity="1" fill-rule="nonzero"/></g><g clip-path="url(#48f61e4266)"><path fill="#3f3d56" d="M 166.65625 89.730469 L 163.605469 87.167969 L 163.675781 89.730469 L 162.730469 89.730469 L 162.65625 87.023438 L 158.53125 89.730469 L 156.808594 89.730469 L 162.621094 85.910156 L 162.394531 77.886719 L 162.226562 71.828125 L 163.175781 71.800781 L 163.347656 77.886719 L 163.570312 85.902344 L 168.132812 89.730469 Z M 166.65625 89.730469 " fill-opacity="1" fill-rule="nonzero"/></g><path fill="#3f3d56" d="M 168.976562 11.808594 C 168.140625 11.808594 167.402344 12.457031 166.910156 13.453125 C 166.472656 11.953125 165.5625 10.914062 164.496094 10.914062 C 164.421875 10.917969 164.351562 10.929688 164.277344 10.949219 C 163.867188 9.347656 162.917969 8.226562 161.804688 8.226562 C 160.320312 8.226562 159.117188 10.230469 159.117188 12.703125 C 159.117188 15.175781 160.320312 17.183594 161.804688 17.183594 C 161.878906 17.175781 161.949219 17.164062 162.019531 17.144531 C 162.429688 18.746094 163.382812 19.867188 164.496094 19.867188 C 165.332031 19.867188 166.066406 19.21875 166.5625 18.222656 C 166.996094 19.722656 167.910156 20.765625 168.976562 20.765625 C 170.460938 20.765625 171.664062 18.757812 171.664062 16.285156 C 171.664062 13.8125 170.460938 11.808594 168.976562 11.808594 Z M 168.976562 11.808594 " fill-opacity="1" fill-rule="nonzero"/><path fill="#3f3d56" d="M 139.796875 45.445312 L 123.011719 42.726562 C 122.167969 42.589844 121.304688 42.449219 120.457031 42.570312 C 119.609375 42.691406 118.761719 43.105469 118.328125 43.847656 C 118.113281 44.210938 118.019531 44.601562 118.035156 45.019531 C 118.054688 45.441406 118.1875 45.820312 118.429688 46.164062 C 118.675781 46.507812 118.992188 46.753906 119.382812 46.910156 C 119.773438 47.066406 120.175781 47.101562 120.589844 47.019531 C 119.671875 46.992188 118.710938 46.972656 117.894531 47.394531 C 117.082031 47.816406 116.507812 48.847656 116.902344 49.671875 C 117.023438 49.902344 117.183594 50.101562 117.378906 50.273438 C 117.683594 50.546875 118.023438 50.773438 118.390625 50.949219 C 118.761719 51.128906 119.148438 51.253906 119.554688 51.320312 C 119.960938 51.390625 120.367188 51.402344 120.773438 51.355469 C 121.183594 51.308594 121.578125 51.207031 121.957031 51.046875 C 121.335938 51.933594 120.113281 52.066406 119.050781 52.269531 C 117.992188 52.476562 116.765625 53.074219 116.726562 54.152344 C 116.679688 55.367188 118.125 56.011719 119.3125 56.257812 C 122.484375 56.910156 125.6875 57.105469 128.914062 56.839844 C 132.144531 56.578125 135.273438 55.867188 138.296875 54.710938 C 138.980469 54.476562 139.617188 54.152344 140.210938 53.734375 C 140.539062 53.484375 140.828125 53.191406 141.074219 52.859375 C 141.316406 52.527344 141.511719 52.164062 141.652344 51.777344 C 141.792969 51.386719 141.878906 50.988281 141.902344 50.574219 C 141.929688 50.160156 141.898438 49.753906 141.804688 49.351562 C 141.710938 48.945312 141.566406 48.5625 141.363281 48.203125 C 141.160156 47.84375 140.910156 47.515625 140.617188 47.226562 C 140.320312 46.9375 139.988281 46.695312 139.625 46.503906 C 139.257812 46.308594 138.871094 46.171875 138.464844 46.085938 " fill-opacity="1" fill-rule="nonzero"/><path fill="#3f3d56" d="M 212.25 59.195312 C 210.863281 56.269531 209.097656 53.59375 206.945312 51.175781 C 204.792969 48.753906 202.347656 46.683594 199.601562 44.960938 C 199.003906 44.554688 198.359375 44.242188 197.671875 44.019531 C 197.273438 43.90625 196.867188 43.851562 196.457031 43.855469 C 196.042969 43.859375 195.636719 43.921875 195.238281 44.042969 C 194.84375 44.164062 194.472656 44.339844 194.128906 44.566406 C 193.78125 44.792969 193.476562 45.066406 193.207031 45.382812 C 192.941406 45.699219 192.722656 46.042969 192.554688 46.421875 C 192.390625 46.800781 192.277344 47.195312 192.226562 47.605469 C 192.171875 48.015625 192.175781 48.425781 192.242188 48.835938 C 192.304688 49.242188 192.425781 49.636719 192.605469 50.007812 L 191.292969 49.328125 C 193.929688 54.34375 196.566406 59.359375 199.203125 64.371094 C 199.601562 65.128906 200.007812 65.902344 200.613281 66.507812 C 201.21875 67.113281 202.066406 67.539062 202.917969 67.441406 C 203.085938 67.421875 203.25 67.382812 203.410156 67.324219 C 203.570312 67.269531 203.71875 67.191406 203.859375 67.097656 C 204 67.003906 204.128906 66.894531 204.246094 66.765625 C 204.359375 66.640625 204.457031 66.503906 204.539062 66.355469 C 204.621094 66.207031 204.6875 66.050781 204.730469 65.886719 C 204.773438 65.722656 204.800781 65.554688 204.804688 65.386719 C 204.808594 65.214844 204.792969 65.046875 204.757812 64.882812 C 204.71875 64.714844 204.664062 64.558594 204.589844 64.402344 C 204.964844 64.933594 205.441406 65.347656 206.011719 65.652344 C 206.839844 66.050781 208.007812 65.890625 208.429688 65.078125 C 208.542969 64.84375 208.605469 64.597656 208.625 64.339844 C 208.660156 63.929688 208.636719 63.523438 208.558594 63.121094 C 208.480469 62.71875 208.34375 62.335938 208.15625 61.96875 C 207.96875 61.605469 207.730469 61.273438 207.449219 60.976562 C 207.167969 60.675781 206.847656 60.425781 206.496094 60.214844 C 207.574219 60.175781 208.417969 61.078125 209.21875 61.800781 C 210.019531 62.527344 211.234375 63.144531 212.121094 62.527344 C 213.117188 61.835938 212.765625 60.292969 212.25 59.195312 Z M 212.25 59.195312 " fill-opacity="1" fill-rule="nonzero"/><g clip-path="url(#34ad3e5211)"><path fill="#cacaca" d="M 17.488281 0.0234375 L 128.757812 0.0234375 L 128.757812 36.53125 L 124.542969 36.53125 L 124.542969 46.078125 L 114.988281 36.53125 L 17.488281 36.53125 Z M 17.488281 0.0234375 " fill-opacity="1" fill-rule="nonzero"/></g><path fill="#FFF459" d="M 20.578125 3.578125 L 125.664062 3.578125 L 125.664062 32.785156 L 20.578125 32.785156 Z M 20.578125 3.578125 " fill-opacity="1" fill-rule="nonzero"/><path fill="#2f2f31" d="M 29.027344 12.105469 L 79.625 12.105469 L 79.625 13.640625 L 29.027344 13.640625 Z M 29.027344 12.105469 " fill-opacity="1" fill-rule="nonzero"/><path fill="#2f2f31" d="M 29.027344 17.414062 L 117.214844 17.414062 L 117.214844 18.949219 L 29.027344 18.949219 Z M 29.027344 17.414062 " fill-opacity="1" fill-rule="nonzero"/><path fill="#2f2f31" d="M 29.027344 22.722656 L 117.128906 22.722656 L 117.128906 24.257812 L 29.027344 24.257812 Z M 29.027344 22.722656 " fill-opacity="1" fill-rule="nonzero"/><g clip-path="url(#64de1585ac)"><path fill="#cacaca" d="M 216.960938 89.976562 L 122.804688 89.976562 C 122.640625 89.976562 122.558594 89.894531 122.558594 89.730469 C 122.558594 89.566406 122.640625 89.480469 122.804688 89.480469 L 216.960938 89.480469 C 217.125 89.480469 217.207031 89.566406 217.207031 89.730469 C 217.207031 89.894531 217.125 89.976562 216.960938 89.976562 Z M 216.960938 89.976562 " fill-opacity="1" fill-rule="nonzero"/></g><g clip-path="url(#fff48ec45e)"><path fill="#FFF459" d="M 22.496094 4.867188 L 124.113281 4.867188 L 124.113281 31.851562 L 22.496094 31.851562 Z M 22.496094 4.867188 " fill-opacity="1" fill-rule="nonzero"/></g></svg>