<svg xmlns="http://www.w3.org/2000/svg" xmlns:xlink="http://www.w3.org/1999/xlink" width="40" zoomAndPan="magnify" viewBox="0 0 30 112.499997" height="150" preserveAspectRatio="xMidYMid meet" version="1.0"><defs><g/><clipPath id="b209c9fc14"><path d="M 0.0664062 5 L 29.933594 5 L 29.933594 106 L 0.0664062 106 Z M 0.0664062 5 " clip-rule="nonzero"/></clipPath></defs><g clip-path="url(#b209c9fc14)"><g fill="#ffffff" fill-opacity="1"><g transform="translate(-9.776538, 85.071435)"><g><path d="M 39.71875 19.9375 L 34.796875 19.9375 C 32.617188 19.9375 30.613281 19.550781 28.78125 18.78125 C 26.945312 18.019531 25.378906 16.976562 24.078125 15.65625 C 22.773438 14.34375 21.757812 12.757812 21.03125 10.90625 C 20.300781 9.050781 19.9375 7.019531 19.9375 4.8125 L 19.9375 -17.859375 C 19.9375 -23.835938 16.601562 -26.828125 9.9375 -26.828125 L 9.9375 -32.8125 C 16.601562 -32.8125 19.9375 -35.804688 19.9375 -41.796875 L 19.9375 -64.78125 C 19.9375 -66.988281 20.300781 -69 21.03125 -70.8125 C 21.757812 -72.632812 22.773438 -74.203125 24.078125 -75.515625 C 25.378906 -76.835938 26.945312 -77.863281 28.78125 -78.59375 C 30.613281 -79.332031 32.617188 -79.703125 34.796875 -79.703125 L 39.71875 -79.703125 L 39.71875 -73.765625 L 34.796875 -73.765625 C 28.734375 -73.765625 25.703125 -70.769531 25.703125 -64.78125 L 25.703125 -41.796875 C 25.703125 -40.585938 25.472656 -39.320312 25.015625 -38 C 24.554688 -36.6875 23.925781 -35.457031 23.125 -34.3125 C 22.320312 -33.175781 21.347656 -32.1875 20.203125 -31.34375 C 19.066406 -30.507812 17.835938 -29.984375 16.515625 -29.765625 C 17.835938 -29.554688 19.050781 -29.050781 20.15625 -28.25 C 21.257812 -27.445312 22.226562 -26.472656 23.0625 -25.328125 C 23.90625 -24.191406 24.554688 -22.972656 25.015625 -21.671875 C 25.472656 -20.367188 25.703125 -19.097656 25.703125 -17.859375 L 25.703125 4.8125 C 25.703125 10.863281 28.734375 13.890625 34.796875 13.890625 L 39.71875 13.890625 Z M 39.71875 19.9375 "/></g></g></g></g></svg>